<?xml version="1.0" standalone="no"?>
<!DOCTYPE svg PUBLIC "-//W3C//DTD SVG 20010904//EN"
 "http://www.w3.org/TR/2001/REC-SVG-20010904/DTD/svg10.dtd">
<svg version="1.0" xmlns="http://www.w3.org/2000/svg"
 width="340.000000pt" height="431.000000pt" viewBox="0 0 340.000000 431.000000"
 preserveAspectRatio="xMidYMid meet">

<g transform="translate(0.000000,431.000000) scale(0.100000,-0.100000)"
fill="#000000" stroke="none">
<path d="M52 4157 l-52 -53 0 -1596 c0 -1512 1 -1597 17 -1602 17 -5 1026
-276 2373 -636 327 -88 643 -173 702 -189 l106 -28 51 51 51 52 0 1600 0 1600
-127 33 c-71 19 -164 44 -208 56 -44 12 -143 39 -220 59 -77 21 -230 61 -340
91 -347 94 -2295 615 -2298 615 -1 0 -26 -24 -55 -53z m1361 -627 l387 -104 0
-98 c0 -90 -2 -99 -17 -94 -10 3 -139 37 -288 77 -148 39 -276 74 -283 76 -10
4 -12 -97 -10 -498 l3 -503 270 -73 c149 -40 282 -75 298 -79 l27 -6 0 96 c0
111 -8 106 115 72 l80 -22 3 -197 c1 -113 -1 -197 -7 -197 -8 0 -731 192 -773
206 -17 5 -18 -16 -16 -498 l3 -503 395 -105 395 -106 3 -97 c2 -56 -1 -97 -7
-97 -5 0 -218 56 -473 124 -254 69 -475 128 -490 131 l-28 7 0 1300 c0 1036 3
1299 13 1296 6 -3 186 -51 400 -108z m502 -334 l80 -22 3 -97 c2 -74 0 -97
-10 -97 -7 1 -51 11 -98 24 l-85 23 -3 96 c-3 113 -11 108 113 73z m148 -240
c29 -8 71 -20 95 -26 l42 -11 0 -298 0 -299 -100 26 -100 27 0 297 c0 164 3
298 6 298 3 0 29 -7 57 -14z m0 -1000 c29 -8 71 -20 94 -26 l42 -11 3 -101 3
-101 88 -24 c49 -12 93 -26 98 -29 9 -5 13 -594 4 -594 -3 0 -48 12 -100 26
l-95 27 -2 300 -3 301 -97 25 -98 26 0 97 c0 54 3 98 6 98 3 0 29 -7 57 -14z
m0 -800 c29 -8 71 -20 95 -26 l42 -11 0 -98 0 -99 -100 26 -100 27 0 97 c0 54
3 98 6 98 3 0 29 -7 57 -14z"/>
</g>
</svg>
